# xmcd CD Database Entry
#
# Track frame offsets:
# 150
# 15905
# 23480
# 41243
# 52945
# 65070
# 78398
# 90855
# 104175
# 117268
# 133978
# 146545
# 156253
# 165780
# 176885
# 188105
# 200888
# 217228
# 228620
# 242760
#
# Disc length: 3419 seconds
#
# Revision: 1
# Processed by: cddbd v1.4PL0 Copyright (c) Steve Scherf et al.
# Submitted via: tcd 2.0b
#
DISCID=1d0d5914
DTITLE=Marco Antonio Muñiz - 20 Exitos
DYEAR=1900
DGENRE=
TTITLE0=Por amor
TTITLE1=Te amare toda la vida
TTITLE2=A donde quiera
TTITLE3=Escandalo
TTITLE4=Perdon
TTITLE5=Morenita Mia
TTITLE6=Celoso
TTITLE7=Delirio
TTITLE8=Sabor a mi
TTITLE9=Tiempo
TTITLE10=Luz y sombra
TTITLE11=Adelante
TTITLE12=Irresistible
TTITLE13=Solo con las Estrellas
TTITLE14=El Despertar
TTITLE15=Que Murmuren
TTITLE16=Quiero Abrazarte Tanto
TTITLE17=Estoy Perdido
TTITLE18=Equivocado
TTITLE19=La Gloria eres tu
EXTD=
EXTT0=
EXTT1=
EXTT2=
EXTT3=
EXTT4=
EXTT5=
EXTT6=
EXTT7=
EXTT8=
EXTT9=A duo con Jose Jose
EXTT10=
EXTT11=
EXTT12=
EXTT13=
EXTT14=
EXTT15=
EXTT16=
EXTT17=
EXTT18=
EXTT19=
PLAYORDER=
